<?xml version="1.0" encoding="UTF-8" standalone="no"?>
<svg xmlns:dc="http://purl.org/dc/elements/1.1/" xmlns:cc="http://creativecommons.org/ns#" xmlns:rdf="http://www.w3.org/1999/02/22-rdf-syntax-ns#" xmlns:svg="http://www.w3.org/2000/svg" xmlns="http://www.w3.org/2000/svg" xmlns:sodipodi="http://sodipodi.sourceforge.net/DTD/sodipodi-0.dtd" xmlns:inkscape="http://www.inkscape.org/namespaces/inkscape" version="1.1" id="svg2" xml:space="preserve" width="1866.6667" height="1307.64" viewBox="0 0 1866.6667 1307.64" sodipodi:docname="Tiger Pattern.eps">
  <metadata id="metadata8">
    <style>
      #splashpattern{
        fill: #18181b;
      }
    </style>
    <rdf:RDF>
      <cc:Work rdf:about="">
        <dc:format>image/svg+xml</dc:format>
        <dc:type rdf:resource="http://purl.org/dc/dcmitype/StillImage" />
      </cc:Work>
    </rdf:RDF>
  </metadata>
  <defs id="defs6">
    <clipPath clipPathUnits="userSpaceOnUse" id="clipPath20">
      <path d="M 0,7 H 14000 V 9807 H 0 Z" id="path18" />
    </clipPath>
  </defs>
  <sodipodi:namedview borderopacity="1" objecttolerance="10" gridtolerance="10" guidetolerance="10" inkscape:pageopacity="0" inkscape:pageshadow="2" inkscape:window-width="640" inkscape:window-height="480" id="namedview4" />
  <g id="splashpattern" inkscape:groupmode="layer" inkscape:label="ink_ext_XXXXXX" transform="matrix(1.3333333,0,0,-1.3333333,0,1307.64)">
    <g id="g12" transform="scale(0.1)">
      <g id="g14">
        <g id="g16" clip-path="url(#clipPath20)">
          <path d="M 0,7 H 14000 V 9807 H 0 Z" style="fill:url(#linearGradient32);fill-opacity:1;fill-rule:nonzero;stroke:none" id="path34" />
        </g>
      </g>
      <path d="m 0,8730.26 c 0,0 350,442 740,1077 h 65 c 0,0 0,-235 130,0 h 375 c 0,0 -267,-1530 -592.996,-2477 -326.004,-947 -200,-1173 -414.008,-1766 C 89,4971.26 216,5171.26 0,4704.26 v 317 c 0,0 247.004,563 202.996,1073 0,0 -109.9999,-73 -202.996,-413 v 360 c 0,0 102.996,150 222.996,643 120,493 500,1367 540,1587 40,220 247.004,1306 220,1353 -26.996,47 -240,-140 -506.996,-653 -267,-513 -476,-907 -476,-907 v 666" style="fill-opacity:1;fill-rule:nonzero;stroke:none" id="path36" />
      <path d="m 0,3724.26 c 0,0 450,293 655,1283 205,990 455,2480 655,3120 200,640 390,1390 370,1680 h 550 c 0,0 -470,-850 -780,-2490 -310,-1640 -460,-1560 -630,-2660 -170,-1100 -820,-1430 -820,-1430 v 497" style="fill-opacity:1;fill-rule:nonzero;stroke:none" id="path38" />
      <path d="m 360,2527.26 c 0,0 290,610 530,920 240,310 370,760 470,1170 100,410 710,1970 930,3250 220,1280 400,1940 400,1940 h -280 c 0,0 -270,-1770 -660,-3170 -390,-1400 -630,-2120 -830,-2710 -200,-590 -440,-380 -560,-1400" style="fill-opacity:1;fill-rule:nonzero;stroke:none" id="path40" />
      <path d="m 310,2077.26 c 0,0 370,230 650,570 280,340 280,290 280,290 0,0 130,-870 -720,-1020 0,0 -370,260 -520,-220 v -350 c 0,0 280,410 360,-50 0,0 80,-180 -140,-190 l -220,70 V 917.262 c 0,0 180,-100 0,-410 v -335 c 0,0 190,310 195,545 5,235 265,309.998 265,309.998 0,0 300,-804.998 525,-1019.99828 h 390 c 0,0 -829,1051.99828 -765,1499.99828 0,0 75,150 350,205 275,55 495,435 565,940 70,505 430,1175 445,1650 15,475 360,1200 360,1200 0,0 -13,-1358 -100,-2445 -87,-1087 100,-1613 100,-1613 0,0 -87,513 -580,587 -493,73 93,-100 293,-447 200,-347 493,-1012.998 553,-1576.99828 h 500 c 0,0 -527,823.00028 -553,1922.99828 -27,1100 -27,1297 -27,1297 0,0 387,-2516.998 773,-3219.99828 h 473 c 0,0 -953,2442.99828 -1040,3669.99828 -87,1227 47,2193 227,2680 180,487 593,1887 573,2273 -20,386 241,1177 241,1177 h -700 c 0,0 13,-1277 -233,-2270 -246,-993 -47,-740 -600,-1887 -553,-1147 -700,-1980 -827,-2133 -127,-153 -953,-1013 -1093,-1440" style="fill-opacity:1;fill-rule:nonzero;stroke:none" id="path42" />
      <path d="m 4460,9807.26 c 0,0 -490,-1900 -790,-3220 -300,-1320 -180,-2090 250,-3470 430,-1380 790,-2629.998 700,-3109.99828 h 450 c 0,0 50,2489.99828 -130,3709.99828 -180,1220 -560,1420 -230,2370 0,0 -464,-100 -50,-2480 0,0 80,-880 -20,-1930 0,0 -750,2890 -540,4150 0,0 -99,20 -260,-920 -161,-940 190,2320 1350,4900 h -730" style="fill-opacity:1;fill-rule:nonzero;stroke:none" id="path44" />
      <path d="m 6620,9807.26 c 0,0 -1520,-1940 -1720,-2700 -200,-760 -734,-1113 -553,-1840 0,0 123,-620 63,-910 0,0 -114,655 -280,1030 -166,375 440,970 460,1310 20,340 1400,3110 1400,3110 h 630" style="fill-opacity:1;fill-rule:nonzero;stroke:none" id="path46" />
      <path d="m 6770,707.262 c 0,0 -180,2489.998 540,4199.998 0,0 320,710 700,940 0,0 -480,-1280 -530,-2070 -50,-790 -170,-1820 -190,-1900 -20,-80 -40,-850 -540,-1869.99828 h 460 c 0,0 497,1180.99828 440,2822.99828 0,0 47,1120 507,2487 460,1367 900,2753 900,2753 0,0 -573,-1207 -860,-1553 -287,-347 -307,-200 -573,-467 -265,-264 -1354,-2003 -1012,-5696.998 4,-45 62,-61 88,-25 41,56 79,165 70,379" style="fill-opacity:1;fill-rule:nonzero;stroke:none" id="path48" />
      <path d="m 8663,7.26172 c 0,0 147,2769.99828 480,1822.99828 0,0 40,-640 -40,-1822.99828 h -440" style="fill-opacity:1;fill-rule:nonzero;stroke:none" id="path50" />
      <path d="m 8770,2137.26 c 12,28 -73,480 383,940 0,0 103,147 90,1053 -13,907 1613,2500 1527,1993 -86,-507 -710,-1876 -1110,-2326 -385,-433 -446,-2091 113,-2713 61,-67 101,-150.998 118,-239.998 33,-175 43,-470 -122,-837.00028 h 434 c 0,0 353,703.00028 -133,1922.99828 -487,1220 673,1367 767,2427 93,1060 327,1667 467,2207 140,540 853,1260 853,1260 0,0 -420,400 -1100,-800 0,0 -740,-667 -1580,-1353 -840,-686 -460,-1960 -780,-2547 -320,-587 -214,-1674 73,-987" style="fill-opacity:1;fill-rule:nonzero;stroke:none" id="path52" />
      <path d="m 5621,7.26172 c 0,0 679,2019.99828 449,3719.99828 -230,1700 150,2710 150,2710 0,0 -610,-1000 -470,-2850 0,0 -821,1859 470,3974 1291,2115 2011,2246 2011,2246 h -690 c 0,0 -2170,-1345 -2351,-4046 -181,-2701 791,-2130 566,-3630 C 5531,631.262 5291,7.26172 5291,7.26172 h 330" style="fill-opacity:1;fill-rule:nonzero;stroke:none" id="path54" />
      <path d="m 8846,9807.26 c 0,0 -810,-701 -1470,-2006 -660,-1305 -720,-465 -975,-2070 -255,-1605 -240,-1485 -240,-1485 0,0 660,2250 1215,2940 555,690 1470,2362 2175,2621 h -705 v 0" style="fill-opacity:1;fill-rule:nonzero;stroke:none" id="path56" />
      <path d="m 14000,4244.26 c 0,0 -670,-537 -1120,-1647 -450,-1110 60,-1689.998 -990,-2589.99828 h -320 c 0,0 -47,970.00028 587,2259.99828 0,0 -57,1134 1243,1977 0,0 430,493 600,793 v -793" style="fill-opacity:1;fill-rule:nonzero;stroke:none" id="path58" />
      <path d="m 14000,2567.26 c 0,0 -12,-16 -34,-45 -153,-212 -765,-1125 -426,-1774.998 0,0 -421,-390 -101,-740.00028 h 561 V 2567.26" style="fill-opacity:1;fill-rule:nonzero;stroke:none" id="path60" />
      <path d="m 11010,4244.26 c 0,0 0,-147 1020,873 1020,1020 1500,1660 1400,2480 0,0 -350,-100 -870,-1110 0,0 -780,-170 -940,-1250 0,0 -660,-486 -610,-993" style="fill-opacity:1;fill-rule:nonzero;stroke:none" id="path62" />
      <path d="m 10020,9807.26 c 0,0 -1664,-1672 -1860,-2880 0,0 -400,620 1050,2260 l 341,620 h 469" style="fill-opacity:1;fill-rule:nonzero;stroke:none" id="path64" />
      <path d="m 11630,9807.26 c 0,0 -890,20 -1690,-1690 -800,-1710 -1370,-1860 -1170,-2260 0,0 1060,930 1410,1600 350,670 950,1960 1550,1910 0,0 -780,-1380 -1570,-1650 l -90,-320 c 0,0 1240,260 1890,1730 l 310,680 h -640" style="fill-opacity:1;fill-rule:nonzero;stroke:none" id="path66" />
      <path d="m 13380,9807.26 c 0,0 -490,-190 -940,-1640 -450,-1450 -1140,-2000 -1140,-2000 0,0 1250,950 1670,2130 420,1180 1030,1510 1030,1510 h -620" style="fill-opacity:1;fill-rule:nonzero;stroke:none" id="path68" />
      <path d="m 14000,9597.26 c 0,0 -870,-840 -710,-1870 0,0 445,350 540,1040 95,690 170,570 170,570 v 260" style="fill-opacity:1;fill-rule:nonzero;stroke:none" id="path70" />
      <path d="m 12940,907.262 c 0,0 -330,-280 -290,-590 0,0 -277,-80 -493,-310.00028 h 783 c 0,0 98,205.00028 -40,450.00028 -138,245 40,450 40,450" style="fill-opacity:1;fill-rule:nonzero;stroke:none" id="path72" />
      <path d="m 11497,3644.26 c 127,120 587,113 613,713 0,0 -273,-100 -440,-467 l -173,-246" style="fill-opacity:1;fill-rule:nonzero;stroke:none" id="path74" />
      <path d="m 10817,2357.26 c 90,-14 420,120 427,527 6,406 -807,-467 -427,-527" style="fill-opacity:1;fill-rule:nonzero;stroke:none" id="path76" />
      <path d="m 13043,4597.26 c 0,0 747,533 957,1133 v -653 c 0,0 -457,-400 -957,-480" style="fill-opacity:1;fill-rule:nonzero;stroke:none" id="path78" />
      <path d="m 13835,7082.26 165,280 v 915 c 0,0 -485,-1375 -165,-1195" style="fill-opacity:1;fill-rule:nonzero;stroke:none" id="path80" />
      <path d="M 25,7.26172 C 55,27.2617 280,397.262 500,172.262 720,-52.7383 670,7.26172 670,7.26172 H 465 c 0,0 -115,200.00028 -265,0 H 25" style="fill-opacity:1;fill-rule:nonzero;stroke:none" id="path82" />
      <path d="m 11850,2617.26 c 0,0 -720,-1450 -800,-2609.99828 h -450 c 0,0 1460,3829.99828 1250,2609.99828" style="fill-opacity:1;fill-rule:nonzero;stroke:none" id="path84" />
    </g>
  </g>
</svg>
