<svg xmlns="http://www.w3.org/2000/svg" width="205" height="165" viewBox="0 0 205 165">
    <g transform="translate(-154.4 -245.6)">
        <path d="M359.091,344.8,291.2,272V245.6L268,260.8l-50.4,2.566-43.2,26.61-20,33.332V369.6L179.546,408l45.254,7.2-33.6-17.385L174.4,369.6v-36L191.2,304l30.361-20H253.6l-30.358,10.178L200.8,312.8l-12.011,25.634L191.2,369.6l19.2,20.8-5.6-20.8,3.876-24.8,12.885-19.531L253.6,312.8l-23.2,20.8-8.839,16.8-1.4,19.2,6.722,24.014L257.6,408l-14.191-17.6L239.2,369.6l4.209-16.041,21.848-12.885L249.851,369.6l3.749,12.53,8.856,2.67L276,397.815l21.6-2.241,9.672-16.375H291.2l-11.938-9.6,2.241-16.041,16.1-3.159,18.4,5.4-3.406,13.8,15.126-7.918h14.565l7-11.282Z" fill="#da9c47" />
        <path d="M286.545,301.74l13.165,12.324H315.4L303,301.74H286.545" fill="#fff" stroke-width="1" />
    </g>
</svg>
